<?xml version="1.0" encoding="utf-8"?><svg viewBox="0 0 512.01 512.01" xmlns="http://www.w3.org/2000/svg" xmlns:xlink="http://www.w3.org/1999/xlink"><style>:root>svg{display:none}:root>svg:target{display:block}</style><svg viewBox="0 0 240.823 240.823" id="arrow" xmlns="http://www.w3.org/2000/svg"><path d="M57.633 129.007L165.93 237.268c4.752 4.74 12.451 4.74 17.215 0 4.752-4.74 4.752-12.439 0-17.179l-99.707-99.671 99.695-99.671c4.752-4.74 4.752-12.439 0-17.191-4.752-4.74-12.463-4.74-17.215 0L57.621 111.816c-4.679 4.691-4.679 12.511.012 17.191z"/></svg><svg viewBox="0 0 480 480" id="calculator" xmlns="http://www.w3.org/2000/svg"><path d="M392 0H88C65.92.026 48.026 17.92 48 40v400c.026 22.08 17.92 39.974 40 40h304c22.08-.026 39.974-17.92 40-40V40c-.026-22.08-17.92-39.974-40-40zM160 16h160v16H160V16zm224 32v80H96V48h288zm32 392c0 13.255-10.745 24-24 24H88c-13.255 0-24-10.745-24-24V40c0-13.255 10.745-24 24-24h56v16H88a8 8 0 00-8 8v96a8 8 0 008 8h304a8 8 0 008-8V40a8 8 0 00-8-8h-56V16h56c13.255 0 24 10.745 24 24v400z"/><path d="M240 160c-22.091 0-40 17.909-40 40 .026 22.08 17.92 39.974 40 40 22.091 0 40-17.909 40-40s-17.909-40-40-40zm0 64c-13.255 0-24-10.745-24-24s10.745-24 24-24 24 10.745 24 24-10.745 24-24 24zm104-64c-22.091 0-40 17.909-40 40 .026 22.08 17.92 39.974 40 40 22.091 0 40-17.909 40-40s-17.909-40-40-40zm0 64c-13.255 0-24-10.745-24-24s10.745-24 24-24 24 10.745 24 24-10.745 24-24 24zm-208-64c-22.091 0-40 17.909-40 40 .026 22.08 17.92 39.974 40 40 22.091 0 40-17.909 40-40s-17.909-40-40-40zm0 64c-13.255 0-24-10.745-24-24s10.745-24 24-24 24 10.745 24 24-10.745 24-24 24zm104 32c-22.091 0-40 17.909-40 40 .026 22.08 17.92 39.974 40 40 22.091 0 40-17.909 40-40s-17.909-40-40-40zm0 64c-13.255 0-24-10.745-24-24s10.745-24 24-24 24 10.745 24 24-10.745 24-24 24zm104-64c-22.091 0-40 17.909-40 40 .026 22.08 17.92 39.974 40 40 22.091 0 40-17.909 40-40s-17.909-40-40-40zm0 64c-13.255 0-24-10.745-24-24s10.745-24 24-24 24 10.745 24 24-10.745 24-24 24zm-208-64c-22.091 0-40 17.909-40 40 .026 22.08 17.92 39.974 40 40 22.091 0 40-17.909 40-40s-17.909-40-40-40zm0 64c-13.255 0-24-10.745-24-24s10.745-24 24-24 24 10.745 24 24-10.745 24-24 24zm104 32c-22.091 0-40 17.909-40 40 .026 22.08 17.92 39.974 40 40 22.091 0 40-17.909 40-40s-17.909-40-40-40zm0 64c-13.255 0-24-10.745-24-24s10.745-24 24-24 24 10.745 24 24-10.745 24-24 24zm-104-64c-22.091 0-40 17.909-40 40 .026 22.08 17.92 39.974 40 40 22.091 0 40-17.909 40-40s-17.909-40-40-40zm0 64c-13.255 0-24-10.745-24-24s10.745-24 24-24 24 10.745 24 24-10.745 24-24 24zm240-64h-64a8 8 0 00-8 8v80a8 8 0 008 8h64a8 8 0 008-8v-80a8 8 0 00-8-8zm-8 80h-48v-64h48v64zM320 96h16v16h-16zm32 0h16v16h-16zM144 80V64h-16v16h-16v16h16v16h16V96h16V80z"/><path d="M352 408h-8a8 8 0 000 16h8a8 8 0 000-16z"/></svg><svg viewBox="0 0 480 480" id="catalog" xmlns="http://www.w3.org/2000/svg"><path d="M472 80h-24V32c0-17.673-14.327-32-32-32h-24a8 8 0 00-8 8v40h-88.64C290.969 17.426 262.624-3.8 232.049.591 207.475 4.12 188.169 23.426 184.64 48H40a8 8 0 00-8 8v24H8a8 8 0 00-8 8v384a8 8 0 008 8h464a8 8 0 008-8V88a8 8 0 00-8-8zm-72-64h16c8.837 0 16 7.163 16 16v356.296A31.757 31.757 0 00416 384h-16V16zM16 464V96h16v344a8 8 0 008 8h164.688l16 16H16zm216-11.312l-18.344-18.344A8 8 0 00208 432H48V64h136.648A56.072 56.072 0 00200 95.112V104h-16v16h48v332.688zm0-369.376V104h-16V91.704a7.999 7.999 0 00-2.656-5.952c-16.458-14.697-17.886-39.952-3.189-56.411A39.952 39.952 0 01240 16c22.065-.025 39.972 17.842 39.997 39.906a39.954 39.954 0 01-13.341 29.846A7.999 7.999 0 00264 91.704V104h-16V83.312l21.656-21.656-11.312-11.312L240 68.688l-18.344-18.344-11.312 11.312L232 83.312zM248 120h48v-16h-16v-8.888A56.072 56.072 0 00295.352 64H384v72H280a8 8 0 00-8 8v96a8 8 0 008 8h104v16h-48v16h48v16H272v16h112v16H272v16h112v16H272v16h112v16a8 8 0 008 8h24c8.837 0 16 7.163 16 16s-7.163 16-16 16H272a8 8 0 00-5.656 2.344L248 452.688V120zm133.656 66.344a8 8 0 00-11.312 0L352 204.688l-26.344-26.344a8 8 0 00-11.312 0L288 204.688V152h96v36.688l-2.344-2.344zM384 211.312V232h-96v-4.688l32-32 26.344 26.344a8 8 0 0011.312 0L376 203.312l8 8zM464 464H259.312l16-16H416c17.673 0 32-14.327 32-32V96h16v368z"/><path d="M200 136H80a8 8 0 00-8 8v96a8 8 0 008 8h120a8 8 0 008-8v-96a8 8 0 00-8-8zm-8 96H88v-4.688l32-32 26.344 26.344a8 8 0 0011.312 0L176 203.312l16 16V232zm0-35.312l-10.344-10.344a8 8 0 00-11.312 0L152 204.688l-26.344-26.344a8 8 0 00-11.312 0L88 204.688V152h104v44.688z"/><path d="M144 168h16v16h-16zm-40 96h16v16h-16zm32 0h72v16h-72zm-64 32h136v16H72zm0 32h136v16H72zm0 32h136v16H72zm0 32h104v16H72zm272-224h16v16h-16zm-40 96h16v16h-16zm-32 128h96v16h-96z"/></svg><svg viewBox="0 0 376.8 376.8" id="clock" xmlns="http://www.w3.org/2000/svg"><path d="M321.6 55.2C287.6 21.2 240.4 0 188.4 0S89.2 21.2 55.2 55.2 0 136.4 0 188.4s21.2 99.2 55.2 133.2 81.2 55.2 133.2 55.2 99.2-21.2 133.2-55.2 55.2-81.2 55.2-133.2-21.2-99.2-55.2-133.2zm-10.4 256C280 342.4 236.4 362 188.4 362S97.2 342.4 66 311.2c-31.6-31.6-50.8-74.8-50.8-122.8S34.4 97.2 66 66c31.2-31.6 74.4-50.8 122.4-50.8S279.6 34.8 311.2 66c31.2 31.2 50.8 74.8 50.8 122.4 0 48-19.6 91.2-50.8 122.8z"/><path d="M292.4 84.4C266 58 229.2 41.2 188.4 41.2c-40.4 0-77.2 16.4-104 43.2-26.4 26.4-43.2 63.2-43.2 104s16.8 77.2 43.2 104c26.8 26.4 63.6 42.8 104 42.8s77.2-16.4 104-43.2c26.4-26.4 43.2-63.2 43.2-104s-16.8-76.8-43.2-103.6zm-10.8 197.2C259.2 304 229.2 318 196 320v-18.8c0-4-3.2-7.6-7.6-7.6-4 0-7.6 3.2-7.6 7.6V320c-33.6-2-63.6-16-85.6-38.4-22.4-22.4-36.4-52.4-38.4-85.6h18.8c4 0 7.6-3.2 7.6-7.6 0-4-3.2-7.6-7.6-7.6H56.8c1.6-33.2 16-63.6 38.4-85.6 22.4-22.4 52.4-36.4 85.6-38.4v18.8c0 4 3.2 7.6 7.6 7.6 4 0 7.6-3.2 7.6-7.6V56.8c33.6 2 63.6 16 85.6 38.4 22.4 22.4 36.4 52.4 38.4 85.6h-18.8c-4 0-7.6 3.2-7.6 7.6 0 4 3.2 7.6 7.6 7.6H320c-2 33.6-16 63.6-38.4 85.6z"/><path d="M195.6 166v-61.2c0-4-3.2-7.6-7.6-7.6-4 0-7.6 3.2-7.6 7.6V166c-3.2 1.2-6.4 2.8-8.8 5.2l-.4.4c-2.4 2.4-4.4 5.6-5.6 9.2H120c-4 0-7.6 3.2-7.6 7.6 0 4 3.6 7.6 7.6 7.6h45.6c1.2 3.6 3.2 6.8 5.6 9.2 4.4 4.4 10.4 6.8 16.8 6.8s12.4-2.8 16.8-6.8c4.4-4.4 6.8-10.4 6.8-16.8s-2.8-12.4-6.8-16.8c-2.4-2.4-5.6-4.4-9.2-5.6zm-1.2 28.4c-1.6 1.6-3.6 2.4-6 2.4s-4.8-.8-6-2.4c-1.6-1.6-2.4-3.6-2.4-6s.8-4.4 2.4-6l.4-.4c1.6-1.6 3.6-2.4 6-2.4s4.8.8 6 2.4c1.6 1.6 2.4 3.6 2.4 6 0 2.8-1.2 5.2-2.8 6.4z"/></svg><svg viewBox="0 0 464.883 464.883" id="event" xmlns="http://www.w3.org/2000/svg"><path d="M396.409 212.577V95.33c0-27.866-22.819-50.882-50.687-50.882h-6.313V36.5c0-19.882-16.118-36-36-36s-36 16.118-36 36v7.948h-132V36.5c0-20.158-16.342-36.5-36.5-36.5s-36.5 16.342-36.5 36.5v7.948h-5.455c-27.867 0-50.545 23.016-50.545 50.882v269.224c0 27.867 22.678 50.894 50.545 50.894h158.594a137.854 137.854 0 00105.561 49.435c75.7 0 137.365-61.677 137.365-137.379.002-47.981-25.065-90.373-62.065-114.927zm-109-176.077c-.154-8.71 6.781-15.896 15.491-16.05.14-.002.28-.003.42-.002 8.792-.093 15.996 6.959 16.089 15.752a15 15 0 010 .3v38.948h-32V36.5zm-205 0c.095-8.961 7.437-16.148 16.398-16.053a.69.69 0 01.046.001c8.994 0 16.556 7.059 16.556 16.052v38.948h-33V36.5zm-56 58.83c0-16.839 13.706-30.882 30.545-30.882h5.455v21.416c0 5.522 4.612 9.584 10.135 9.584h52.62c5.522 0 10.245-4.062 10.245-9.584V64.448h132v21.416a9.32 9.32 0 009.6 9.584h52.62a9.466 9.466 0 009.78-9.584V64.448h6.313c16.953.171 30.623 13.929 30.687 30.882v32.118h-350V95.33zm30.545 300.118c-16.839 0-30.545-14.055-30.545-30.894V147.448h350v54.254a137.238 137.238 0 00-55.224-11.578c-75.7 0-137.327 61.767-137.327 137.469a137.131 137.131 0 0017.839 67.855H56.954zm264.155 49.257c-64.778 0-117.291-52.513-117.291-117.291 0-64.778 52.513-117.291 117.291-117.291S438.4 262.636 438.4 327.414v.001c-.073 64.747-52.543 117.217-117.291 117.29z"/><path d="M368.219 327.448h-43.81v-60.17c0-5.523-4.477-10-10-10s-10 4.477-10 10v70.16a10.17 10.17 0 0010.188 10.01h53.622c5.523 0 10-4.477 10-10s-4.477-10-10-10z"/></svg><svg viewBox="0 0 512 512" id="hammer" xmlns="http://www.w3.org/2000/svg"><path d="M508.259 59.467l-44.995-36.11a9.993 9.993 0 00-6.259-2.201H257.241c-2.041 0-4.034.625-5.71 1.79l-51.921 36.11a9.993 9.993 0 00-4.272 7.909L156.529 79.41H96.334c-2.01 0-3.973.605-5.634 1.737l-29.219 19.922a10.003 10.003 0 00-4.366 8.263v14.278H10c-5.522 0-10 4.478-10 10s4.478 10 10 10h47.115v15.277c0 3.226 1.556 6.253 4.178 8.131l29.219 20.922a9.999 9.999 0 005.822 1.869h60.254l38.732 11.943v.731a10 10 0 005.997 9.164l71.804 31.368c-.227 9.579-2.479 30.126-16.566 44.939a9.998 9.998 0 002.292 15.578c3.326 1.897 29.661 16.605 52.589 20.411v56.743H270.24c-14.141 0-25.646 11.505-25.646 25.646V465.2c0 14.141 11.505 25.646 25.646 25.646h167.531c22.526 0 40.854-18.327 40.854-40.854v-40.934a40.72 40.72 0 00-2.418-13.848l-50.323-139.678 81.286-49.086a10 10 0 004.831-8.561V67.266a10.002 10.002 0 00-3.742-7.799zM77.115 153.748v-39.132l22.304-15.207h48.675v70.399H99.545zm90.979 18.68V96.704l27.227-8.73v92.85zm111.007 119.111c8.965-13.73 12.294-28.78 13.458-39.757l18.877 8.037v43.774c-10.714-2.353-23.138-7.603-32.335-12.054zm169.844 87.01c-8.545.414-17.016-1.817-24.433-6.511-9.746-6.166-16.405-15.78-18.75-27.071l-8.197-39.466c-2.946-14.186 1.488-28.404 11.28-38.254zm-40.408-135.907c-23.838 13.317-36.113 40.157-30.554 66.926l8.197 39.466c3.457 16.645 13.272 30.817 27.639 39.906 10.091 6.385 21.486 9.666 33.1 9.666 2.994 0 6.001-.246 9.006-.685l1.466 4.069a20.796 20.796 0 011.233 7.067v20.288h-50.89c-5.522 0-10 4.478-10 10s4.478 10 10 10h50.89v.646c0 11.499-9.354 20.854-20.854 20.854H270.239a5.652 5.652 0 01-5.646-5.646v-15.854h53.445c5.522 0 10-4.478 10-10s-4.478-10-10-10h-53.445v-23.014a5.652 5.652 0 015.646-5.646h51.196c5.522 0 10-4.478 10-10V253.208c0-3.909-2.413-7.599-5.997-9.164L215.32 195.938V72.491l45.057-31.336h193.111L492 72.063v26.383h-43.381c-5.522 0-10 4.478-10 10s4.478 10 10 10H492v17.35h-43.381c-5.522 0-10 4.478-10 10s4.478 10 10 10H492v36.446z"/><path d="M131.39 130.78c-3.473-8.343-15.875-7.932-18.723.694-2.816 8.53 6.705 16.267 14.488 11.792 4.304-2.475 6.113-7.907 4.235-12.486zm231.277-38.047h-82.653c-18.755 0-34.014 15.259-34.014 34.014 0 18.756 15.259 34.015 34.014 34.015h82.653c18.755 0 34.014-15.259 34.014-34.015 0-18.755-15.259-34.014-34.014-34.014zm0 48.029h-82.653c-7.728 0-14.014-6.287-14.014-14.015s6.286-14.014 14.014-14.014h82.653c7.728 0 14.014 6.286 14.014 14.014s-6.286 14.015-14.014 14.015zM371.43 435.6c-3.438-8.245-15.621-7.986-18.646.46-1.432 4-.11 8.639 3.257 11.249 3.255 2.523 7.81 2.795 11.332.665 4.182-2.53 5.905-7.862 4.057-12.374z"/></svg><svg viewBox="0 0 442.218 442.218" id="light" xmlns="http://www.w3.org/2000/svg"><path d="M221.109 0C139.117 0 72.412 66.705 72.412 148.697c0 51.807 27.161 99.981 71.213 126.927l4.755 35.096c2.251 16.609 16.007 29.134 32 29.134h81.458c15.993 0 29.749-12.525 31.999-29.134l4.755-35.096c44.052-26.946 71.213-75.121 71.213-126.927C369.806 66.705 303.101 0 221.109 0zm63.299 260.769a10 10 0 00-4.983 7.359l-5.407 39.906c-.897 6.627-6.248 11.819-12.18 11.819H180.38c-5.932 0-11.282-5.192-12.18-11.82l-5.407-39.906a9.998 9.998 0 00-4.983-7.359c-40.338-22.836-65.397-65.78-65.397-112.072C92.412 77.733 150.145 20 221.109 20s128.697 57.733 128.697 128.697c0 46.292-25.059 89.236-65.398 112.072zm-10.926 90.421H168.735c-5.523 0-10 4.477-10 10s4.477 10 10 10h104.747c5.523 0 10-4.477 10-10s-4.477-10-10-10zm-12.681 31.336h-79.385c-5.523 0-10 4.477-10 10 0 27.4 22.292 49.692 49.692 49.692s49.692-22.292 49.692-49.692c.001-5.523-4.476-10-9.999-10zm-39.692 39.692c-12.865 0-23.846-8.225-27.96-19.692h55.92c-4.114 11.467-15.095 19.692-27.96 19.692z"/><path d="M284.487 154.547c0-.186-.001-.372-.012-.557-.008-.139-.024-.278-.037-.417-.018-.179-.036-.358-.063-.535-.024-.153-.056-.304-.087-.456-.033-.159-.064-.319-.104-.476-.042-.167-.094-.332-.145-.497-.044-.14-.086-.28-.135-.417a10.66 10.66 0 00-.2-.501c-.057-.134-.112-.268-.174-.399a9.41 9.41 0 00-.236-.457 9.706 9.706 0 00-.238-.422 9.458 9.458 0 00-.25-.388 9.588 9.588 0 00-.321-.456c-.039-.052-.072-.108-.113-.16-.047-.06-.099-.111-.147-.17a9.943 9.943 0 00-4.385-3.082 9.496 9.496 0 00-.542-.175c-.075-.022-.145-.051-.221-.071-.066-.018-.132-.026-.198-.042a11.36 11.36 0 00-1-.194 11.757 11.757 0 00-.46-.051 10.781 10.781 0 00-.535-.04c-.137-.005-.273-.004-.41-.004-.189 0-.377.001-.565.012-.136.008-.271.023-.407.036a9.915 9.915 0 00-.546.065c-.148.023-.295.054-.442.084a9.957 9.957 0 00-.491.107c-.161.041-.32.091-.48.14-.146.045-.292.089-.435.141a9.998 9.998 0 00-.485.194c-.139.059-.278.117-.415.181-.15.071-.298.15-.445.23-.146.079-.291.158-.433.244a11.092 11.092 0 00-.842.569c-.052.039-.107.071-.158.111l-20.532 16.068-20.533-16.068a10 10 0 00-12.326 0l-20.528 16.067-20.53-16.067c-.052-.041-.107-.073-.16-.113a9.588 9.588 0 00-.456-.321 9.4 9.4 0 00-.387-.249c-.139-.084-.281-.161-.423-.238a9.36 9.36 0 00-.456-.235 8.38 8.38 0 00-.401-.175c-.165-.07-.331-.139-.499-.2-.138-.05-.279-.092-.419-.136-.165-.051-.329-.103-.495-.145a9.64 9.64 0 00-.477-.104c-.151-.031-.302-.063-.454-.086-.177-.028-.357-.045-.536-.063-.139-.014-.277-.03-.416-.037a9.373 9.373 0 00-.557-.012c-.14 0-.279-.001-.418.004a9.476 9.476 0 00-.529.039c-.156.014-.311.03-.465.051-.157.022-.313.05-.47.08-.177.033-.354.07-.529.113-.066.016-.132.025-.198.042-.076.02-.146.049-.221.071a10.315 10.315 0 00-.948.328c-.167.067-.332.14-.496.217a9.701 9.701 0 00-2.406 1.591 10.023 10.023 0 00-.695.685 9.56 9.56 0 00-.374.432c-.049.06-.103.113-.151.174-.042.053-.075.11-.116.164a10.53 10.53 0 00-.314.446 9.882 9.882 0 00-.255.397c-.082.135-.157.274-.232.413a9.771 9.771 0 00-.24.466c-.061.128-.115.259-.171.39-.071.169-.142.337-.204.508-.049.135-.09.273-.133.41-.052.167-.104.334-.147.504-.04.155-.071.313-.103.47-.031.153-.064.306-.087.46-.027.176-.045.354-.063.532-.014.14-.03.279-.038.419a9.34 9.34 0 00-.012.556c0 .14-.001.279.004.418.007.176.023.353.039.53.014.155.029.309.051.464.022.157.05.314.08.471.033.177.07.353.113.528.016.066.025.132.042.198l38.487 143.945c1.195 4.471 5.237 7.419 9.654 7.419.854 0 1.725-.11 2.589-.342 5.335-1.427 8.504-6.908 7.078-12.244L185.104 180.87l3.146 2.462c1.81 1.417 3.986 2.125 6.163 2.125s4.353-.708 6.164-2.125l20.528-16.067 20.533 16.068a10 10 0 0012.326 0l3.149-2.464-30.764 115.061c-1.427 5.335 1.742 10.817 7.078 12.244.865.231 1.734.342 2.589.342 4.417 0 8.459-2.949 9.654-7.419l38.487-143.945c.018-.065.026-.131.042-.197a10.954 10.954 0 00.194-1c.022-.155.037-.31.051-.466.017-.177.032-.353.039-.529a8.08 8.08 0 00.004-.413z"/></svg><svg viewBox="0 0 512.006 512.006" id="phone-wh" xmlns="http://www.w3.org/2000/svg"><path d="M502.05 407.127l-56.761-37.844-50.459-33.633c-9.738-6.479-22.825-4.355-30.014 4.873l-31.223 40.139c-6.707 8.71-18.772 11.213-28.39 5.888-21.186-11.785-46.239-22.881-101.517-78.23-55.278-55.349-66.445-80.331-78.23-101.517-5.325-9.618-2.822-21.683 5.888-28.389l40.139-31.223c9.227-7.188 11.352-20.275 4.873-30.014l-32.6-48.905-38.877-58.316C98.262.03 85.016-2.95 74.786 3.185L29.95 30.083A54.779 54.779 0 005.074 62.277C-7.187 106.98-9.659 205.593 148.381 363.633s256.644 155.56 301.347 143.298a54.771 54.771 0 0032.194-24.876l26.898-44.835c6.136-10.231 3.156-23.476-6.77-30.093zM291.309 79.447c82.842.092 149.977 67.226 150.069 150.069a8.828 8.828 0 0017.656 0c-.102-92.589-75.135-167.622-167.724-167.724a8.828 8.828 0 00-8.828 8.828 8.826 8.826 0 008.827 8.827z"/><path d="M291.309 132.412c53.603.063 97.04 43.501 97.103 97.103a8.828 8.828 0 0017.656 0c-.073-63.349-51.409-114.686-114.759-114.759a8.828 8.828 0 000 17.656z"/><path d="M291.309 185.378c24.365.029 44.109 19.773 44.138 44.138a8.828 8.828 0 0017.656 0c-.039-34.111-27.682-61.754-61.793-61.793a8.828 8.828 0 00-8.828 8.828 8.826 8.826 0 008.827 8.827z"/></svg><svg viewBox="0 0 512 512" id="socials--insta" xmlns="http://www.w3.org/2000/svg"><path d="M363.273 0H148.728C66.719 0 0 66.719 0 148.728v214.544C0 445.281 66.719 512 148.728 512h214.544C445.281 512 512 445.281 512 363.273V148.728C512 66.719 445.281 0 363.273 0zM472 363.272C472 423.225 423.225 472 363.273 472H148.728C88.775 472 40 423.225 40 363.273V148.728C40 88.775 88.775 40 148.728 40h214.544C423.225 40 472 88.775 472 148.728v214.544z"/><path d="M256 118c-76.094 0-138 61.906-138 138s61.906 138 138 138 138-61.906 138-138-61.906-138-138-138zm0 236c-54.037 0-98-43.963-98-98s43.963-98 98-98 98 43.963 98 98-43.963 98-98 98z"/><circle cx="396" cy="116" r="20"/></svg><svg viewBox="0 0 512.021 512.021" fill="#a0d152" id="socials--phone" xmlns="http://www.w3.org/2000/svg"><path d="M367.988 512.021c-16.528 0-32.916-2.922-48.941-8.744-70.598-25.646-136.128-67.416-189.508-120.795S34.389 263.572 8.744 192.974c-8.241-22.688-10.673-46.108-7.226-69.612 3.229-22.016 11.757-43.389 24.663-61.809 12.963-18.501 30.245-33.889 49.977-44.5C97.2 5.738 120.167 0 144.423 0a16.002 16.002 0 0115.645 12.647l25.114 117.199a16.004 16.004 0 01-4.331 14.667l-42.913 42.912c40.482 80.486 106.17 146.174 186.656 186.656l42.912-42.913a16.01 16.01 0 0114.667-4.331l117.199 25.114a16 16 0 0112.647 15.645c0 24.256-5.738 47.224-17.054 68.266-10.611 19.732-25.999 37.014-44.5 49.977-18.419 12.906-39.792 21.434-61.809 24.663a142.318 142.318 0 01-20.668 1.519zM131.639 32.7c-31.995 3.532-60.393 20.302-79.251 47.217-21.206 30.265-26.151 67.49-13.567 102.132C88.125 317.775 194.246 423.896 329.972 473.2c34.641 12.584 71.866 7.64 102.132-13.567 26.915-18.858 43.685-47.256 47.217-79.251l-95.341-20.43-44.816 44.816a15.998 15.998 0 01-18.117 3.168c-95.19-44.72-172.242-121.772-216.962-216.962a15.999 15.999 0 013.168-18.117l44.816-44.816z"/></svg><svg viewBox="0 0 24 24" id="socials--telegram" xmlns="http://www.w3.org/2000/svg"><path d="M9.417 15.181l-.397 5.584c.568 0 .814-.244 1.109-.537l2.663-2.545 5.518 4.041c1.012.564 1.725.267 1.998-.931L23.93 3.821l.001-.001c.321-1.496-.541-2.081-1.527-1.714l-21.29 8.151c-1.453.564-1.431 1.374-.247 1.741l5.443 1.693L18.953 5.78c.595-.394 1.136-.176.691.218z" fill="#039be5"/></svg><svg viewBox="0 0 24 24" id="socials--viber" xmlns="http://www.w3.org/2000/svg"><g fill="#8e24aa"><path d="M23.155 13.893c.716-6.027-.344-9.832-2.256-11.553l.001-.001C17.814-.6 7.392-1.035 3.7 2.471 2.042 4.186 1.458 6.703 1.394 9.819c-.064 3.117-.14 8.956 5.301 10.54H6.7l-.005 2.419s-.037.98.589 1.177c.716.232 1.04-.223 3.267-2.883 3.724.323 6.584-.417 6.909-.525.752-.252 5.007-.815 5.695-6.654zM10.918 19.37s-2.357 2.939-3.09 3.702c-.24.248-.503.225-.499-.267 0-.323.018-4.016.018-4.016-4.613-1.322-4.341-6.294-4.291-8.895.05-2.602.526-4.733 1.93-6.168C8.225.689 17.362 1.368 19.69 3.556c2.846 2.523 1.833 9.651 1.839 9.894-.585 4.874-4.033 5.183-4.667 5.394-.271.09-2.786.737-5.944.526z"/><path d="M12.222 4.297c-.385 0-.385.6 0 .605 2.987.023 5.447 2.105 5.474 5.924 0 .403.59.398.585-.005h-.001c-.032-4.115-2.718-6.501-6.058-6.524z"/><path d="M16.151 10.193c-.009.398.58.417.585.014.049-2.269-1.35-4.138-3.979-4.335-.385-.028-.425.577-.041.605 2.28.173 3.481 1.729 3.435 3.716zm-.63 2.581c-.494-.286-.997-.108-1.205.173l-.435.563c-.221.286-.634.248-.634.248-3.014-.797-3.82-3.951-3.82-3.951s-.037-.427.239-.656l.544-.45c.272-.216.444-.736.167-1.247-.74-1.337-1.237-1.798-1.49-2.152-.266-.333-.666-.408-1.082-.183h-.009c-.865.506-1.812 1.453-1.509 2.428.517 1.028 1.467 4.305 4.495 6.781 1.423 1.171 3.675 2.371 4.631 2.648l.009.014c.942.314 1.858-.67 2.347-1.561v-.007c.217-.431.145-.839-.172-1.106-.562-.548-1.41-1.153-2.076-1.542z"/><path d="M13.169 8.104c.961.056 1.427.558 1.477 1.589.018.403.603.375.585-.028-.064-1.346-.766-2.096-2.03-2.166-.385-.023-.421.582-.032.605z"/></g></svg><svg viewBox="0 0 24 24" id="socials--wa" xmlns="http://www.w3.org/2000/svg"><path d="M20.52 3.449C18.24 1.245 15.24 0 12.045 0 2.875 0-2.883 9.935 1.696 17.838L0 24l6.335-1.652c2.76 1.491 5.021 1.359 5.716 1.447 10.633 0 15.926-12.864 8.454-20.307z" fill="#eceff1"/><path d="M12.067 21.751l-.006-.001h-.016c-3.182 0-5.215-1.507-5.415-1.594l-3.75.975 1.005-3.645-.239-.375a9.869 9.869 0 01-1.516-5.26c0-8.793 10.745-13.19 16.963-6.975 6.203 6.15 1.848 16.875-7.026 16.875z" fill="#4caf50"/><path d="M17.507 14.307l-.009.075c-.301-.15-1.767-.867-2.04-.966-.613-.227-.44-.036-1.617 1.312-.175.195-.349.21-.646.075-.3-.15-1.263-.465-2.403-1.485-.888-.795-1.484-1.77-1.66-2.07-.293-.506.32-.578.878-1.634.1-.21.049-.375-.025-.524-.075-.15-.672-1.62-.922-2.206-.24-.584-.487-.51-.672-.51-.576-.05-.997-.042-1.368.344-1.614 1.774-1.207 3.604.174 5.55 2.714 3.552 4.16 4.206 6.804 5.114.714.227 1.365.195 1.88.121.574-.091 1.767-.721 2.016-1.426.255-.705.255-1.29.18-1.425-.074-.135-.27-.21-.57-.345z" fill="#fafafa"/></svg><svg viewBox="0 0 512 512" id="support" xmlns="http://www.w3.org/2000/svg"><path d="M496 424h-60a28.031 28.031 0 0028-28v-8a28.031 28.031 0 00-28-28h-19.45l-21.78-100.26A48.215 48.215 0 00346.96 216H304v-8a8.074 8.074 0 00-.49-2.75A59.858 59.858 0 00318.79 176H320a24.032 24.032 0 0024-24v-52a84.092 84.092 0 00-84-84h-8a84.092 84.092 0 00-84 84v52a24.032 24.032 0 0024 24h1.21a59.858 59.858 0 0015.28 29.25A8.074 8.074 0 00208 208v8h-42.96a48.215 48.215 0 00-47.81 43.74L98.93 344H92a27.525 27.525 0 00-6.65.81l-22.19-44.39a8.005 8.005 0 10-14.32 7.16l22.68 45.35A27.918 27.918 0 0064 372v24a28.031 28.031 0 0028 28H16a8 8 0 00-8 8v32a8 8 0 008 8h8v16a8 8 0 008 8h448a8 8 0 008-8v-16h8a8 8 0 008-8v-32a8 8 0 00-8-8zm-84-48h24a12.01 12.01 0 0112 12v8a12.01 12.01 0 01-12 12h-24a12.01 12.01 0 01-12-12v-8a12.01 12.01 0 0112-12zm-84-224a8.011 8.011 0 01-8 8v-32h8zm-136 8a8.011 8.011 0 01-8-8v-24h8zm-8-48v-12a68.071 68.071 0 0168-68h8a68.071 68.071 0 0168 68v12h-8v-4c0-1.53-.06-3.06-.17-4.55a8 8 0 00-10.94-6.82C270.77 111.81 200.7 112 200 112zm24 52v-36.12c18.1-.45 62.86-2.58 96-12.63V164a44.052 44.052 0 01-44 44h-8a44.052 44.052 0 01-44-44zm80 53.04V224c0 13.23-14.35 24-32 24s-32-10.77-32-24v-6.96a59.553 59.553 0 0028 6.96h8a59.553 59.553 0 0028-6.96zm-155.02 45.59a7.954 7.954 0 00.16-1.09 32.138 32.138 0 0131.9-29.54h43.93c4.46 18.24 23.85 32 47.03 32s42.57-13.76 47.03-32h43.93a32.138 32.138 0 0131.9 29.54 7.954 7.954 0 00.16 1.09l21.68 99.76A28.035 28.035 0 00384 388v8a28.031 28.031 0 0028 28h-36V300a28.031 28.031 0 00-28-28H164a28.031 28.031 0 00-28 28v124h-36a28.031 28.031 0 0028-28v-24a27.987 27.987 0 00-13.57-23.98zM360 300v124H152V300a12.01 12.01 0 0112-12h184a12.01 12.01 0 0112 12zM80 396v-24a12.01 12.01 0 0112-12h8a12.01 12.01 0 0112 12v24a12.01 12.01 0 01-12 12h-8a12.01 12.01 0 01-12-12zm392 84H40v-8h432zm16-24H24v-16h464z"/><path d="M256 336a32 32 0 1032 32 32.036 32.036 0 00-32-32zm0 48a16 16 0 1116-16 16.019 16.019 0 01-16 16z"/><circle cx="232" cy="144" r="8"/><circle cx="280" cy="144" r="8"/><path d="M248 192h16a8 8 0 000-16h-16a8 8 0 000 16z"/></svg></svg>