<svg id="Capa_1" enable-background="new 0 0 512 512" height="512" viewBox="0 0 512 512" width="512" xmlns="http://www.w3.org/2000/svg"><g><g><path d="m508.259 59.467-44.995-36.11c-1.774-1.425-3.982-2.201-6.259-2.201h-199.764c-2.041 0-4.034.625-5.71 1.79l-51.921 36.11c-2.604 1.811-4.176 4.75-4.272 7.909l-38.809 12.445h-60.195c-2.01 0-3.973.605-5.634 1.737l-29.219 19.922c-2.731 1.863-4.366 4.956-4.366 8.263v14.278h-47.115c-5.522 0-10 4.478-10 10s4.478 10 10 10h47.115v15.277c0 3.226 1.556 6.253 4.178 8.131l29.219 20.922c1.698 1.216 3.734 1.869 5.822 1.869h60.254l38.732 11.943v.731c0 3.975 2.354 7.572 5.997 9.164l71.804 31.368c-.227 9.579-2.479 30.126-16.566 44.939-2.119 2.228-3.095 5.306-2.647 8.348.447 3.041 2.27 5.708 4.939 7.23 3.326 1.897 29.661 16.605 52.589 20.411v56.743h-41.196c-14.141 0-25.646 11.505-25.646 25.646v58.868c0 14.141 11.505 25.646 25.646 25.646h167.531c22.526 0 40.854-18.327 40.854-40.854v-40.934c0-4.736-.813-9.396-2.418-13.848l-50.323-139.678 81.286-49.086c2.999-1.811 4.831-5.058 4.831-8.561v-130.619c-.001-3.033-1.377-5.902-3.742-7.799zm-431.144 94.281v-39.132l22.304-15.207h48.675v70.399h-48.549zm90.979 18.68v-75.724l27.227-8.73v92.85zm111.007 119.111c8.965-13.73 12.294-28.78 13.458-39.757l18.877 8.037v43.774c-10.714-2.353-23.138-7.603-32.335-12.054zm169.844 87.01c-8.545.414-17.016-1.817-24.433-6.511-9.746-6.166-16.405-15.78-18.75-27.071l-8.197-39.466c-2.946-14.186 1.488-28.404 11.28-38.254zm-40.408-135.907c-23.838 13.317-36.113 40.157-30.554 66.926l8.197 39.466c3.457 16.645 13.272 30.817 27.639 39.906 10.091 6.385 21.486 9.666 33.1 9.666 2.994 0 6.001-.246 9.006-.685l1.466 4.069c.818 2.271 1.233 4.649 1.233 7.067v20.288h-50.89c-5.522 0-10 4.478-10 10s4.478 10 10 10h50.89v.646c0 11.499-9.354 20.854-20.854 20.854h-167.531c-3.113 0-5.646-2.532-5.646-5.646v-15.854h53.445c5.522 0 10-4.478 10-10s-4.478-10-10-10h-53.445v-23.014c0-3.113 2.532-5.646 5.646-5.646h51.196c5.522 0 10-4.478 10-10v-137.477c0-3.909-2.413-7.599-5.997-9.164l-110.118-48.106v-123.447l45.057-31.336h193.111l38.512 30.908v26.383h-43.381c-5.522 0-10 4.478-10 10s4.478 10 10 10h43.381v17.35h-43.381c-5.522 0-10 4.478-10 10s4.478 10 10 10h43.381v36.446z"/><path d="m131.39 130.78c-3.473-8.343-15.875-7.932-18.723.694-2.816 8.53 6.705 16.267 14.488 11.792 4.304-2.475 6.113-7.907 4.235-12.486z"/><path d="m362.667 92.733h-82.653c-18.755 0-34.014 15.259-34.014 34.014 0 18.756 15.259 34.015 34.014 34.015h82.653c18.755 0 34.014-15.259 34.014-34.015 0-18.755-15.259-34.014-34.014-34.014zm0 48.029h-82.653c-7.728 0-14.014-6.287-14.014-14.015s6.286-14.014 14.014-14.014h82.653c7.728 0 14.014 6.286 14.014 14.014s-6.286 14.015-14.014 14.015z"/><path d="m371.43 435.6c-3.438-8.245-15.621-7.986-18.646.46-1.432 4-.11 8.639 3.257 11.249 3.255 2.523 7.81 2.795 11.332.665 4.182-2.53 5.905-7.862 4.057-12.374z"/></g></g></svg>